<svg xmlns="http://www.w3.org/2000/svg" xmlns:xlink="http://www.w3.org/1999/xlink" width="1000" zoomAndPan="magnify" viewBox="0 0 750 374.999991" height="500" preserveAspectRatio="xMidYMid meet" version="1.2"><g id="2adf692791"><rect x="0" width="750" y="0" height="374.999991" style="fill:#ffffff;fill-opacity:1;stroke:none;"/><path style=" stroke:none;fill-rule:nonzero;fill:#ffffff;fill-opacity:1;" d="M 750 0.0351562 L 750 386.214844 L 0 386.214844 L 0 0.0351562 L 750 0.0351562 "/><path style=" stroke:none;fill-rule:nonzero;fill:#3f3f3f;fill-opacity:1;" d="M 274.570312 40.984375 C 302.808594 47.632812 332.003906 54.503906 359.75 65.054688 C 382.132812 73.570312 404.613281 84.367188 428.480469 98.0625 C 448.117188 109.332031 468.460938 122.410156 492.511719 139.21875 C 505.4375 148.253906 518.375 157.664062 530.960938 166.839844 C 524.660156 164.90625 518.382812 163.007812 512.152344 161.125 C 503.609375 158.542969 494.773438 155.871094 486.121094 153.175781 C 453.175781 142.925781 414.289062 129.992188 375.695312 111.792969 C 341.28125 95.566406 308.113281 76.726562 276.039062 58.507812 C 259.582031 49.160156 242.5625 39.492188 225.59375 30.300781 C 223.484375 29.160156 221.363281 28.019531 219.242188 26.882812 C 237.558594 32.269531 256.355469 36.695312 274.570312 40.984375 Z M 606.324219 194.089844 C 622.542969 200.875 638.601562 209.328125 655.421875 219.925781 C 670.445312 229.394531 684.769531 239.726562 698.625 249.714844 C 702.949219 252.835938 707.324219 255.988281 711.753906 259.144531 C 705.960938 257.613281 700.351562 256.042969 694.878906 254.417969 C 670.382812 247.15625 648.71875 238.894531 628.652344 229.160156 C 608.378906 219.324219 587.640625 206.667969 563.394531 189.335938 C 554.035156 182.648438 544.597656 175.765625 535.449219 169.089844 C 559.023438 176.390625 582.914062 184.296875 606.324219 194.089844 Z M 225.199219 31.027344 C 242.160156 40.214844 259.175781 49.878906 275.628906 59.226562 C 307.714844 77.453125 340.898438 96.300781 375.34375 112.542969 C 413.984375 130.761719 452.902344 143.707031 485.875 153.96875 C 494.535156 156.660156 503.371094 159.332031 511.910156 161.917969 C 518.898438 164.027344 525.9375 166.160156 533.011719 168.339844 C 533.402344 168.625 533.792969 168.910156 534.183594 169.195312 C 543.574219 176.046875 553.289062 183.128906 562.910156 190.007812 C 587.199219 207.371094 607.972656 220.046875 628.289062 229.902344 C 648.394531 239.660156 670.101562 247.9375 694.636719 255.210938 C 700.796875 257.035156 707.109375 258.792969 713.667969 260.503906 C 722.425781 266.714844 731.425781 272.921875 740.773438 278.886719 C 743.808594 280.824219 746.886719 282.726562 750 284.605469 L 750 283.636719 C 747.042969 281.847656 744.109375 280.03125 741.214844 278.1875 C 732.519531 272.636719 724.117188 266.871094 715.929688 261.09375 C 726.503906 263.808594 737.738281 266.417969 750 269.003906 L 750 268.160156 C 736.992188 265.414062 725.148438 262.640625 714.023438 259.742188 C 708.976562 256.164062 704.011719 252.582031 699.105469 249.046875 C 685.246094 239.046875 670.910156 228.707031 655.859375 219.226562 C 639.003906 208.601562 622.90625 200.132812 606.640625 193.324219 C 582.4375 183.199219 557.722656 175.089844 533.390625 167.585938 C 520.195312 157.964844 506.582031 148.046875 492.984375 138.542969 C 468.917969 121.71875 448.550781 108.628906 428.894531 97.34375 C 404.988281 83.625 382.46875 72.8125 360.042969 64.28125 C 332.25 53.710938 303.023438 46.832031 274.761719 40.175781 C 255.375 35.617188 235.332031 30.894531 215.925781 25.027344 C 215.808594 24.992188 215.6875 24.957031 215.570312 24.921875 C 199.644531 16.4375 183.363281 8.097656 166.976562 0.0351562 L 165.101562 0.0351562 C 180.652344 7.671875 196.121094 15.558594 211.285156 23.582031 C 193.433594 17.859375 175.027344 10.105469 155.410156 0.0351562 L 153.601562 0.0351562 C 175.351562 11.289062 195.605469 19.714844 215.25 25.6875 C 218.582031 27.460938 221.898438 29.242188 225.199219 31.027344 Z M 177.511719 246.308594 C 191.558594 253.734375 205.71875 261.355469 219.414062 268.730469 C 228.882812 273.828125 238.679688 279.101562 248.351562 284.265625 C 272.746094 297.285156 293.128906 307.460938 312.496094 316.289062 C 356.855469 336.515625 401.875 352.734375 436.144531 364.601562 C 449.117188 369.097656 462.285156 373.53125 475.023438 377.820312 C 483.222656 380.582031 491.507812 383.375 499.847656 386.214844 L 502.40625 386.214844 C 493.292969 383.101562 484.238281 380.050781 475.285156 377.035156 C 462.550781 372.746094 449.382812 368.3125 436.414062 363.820312 C 402.164062 351.957031 357.167969 335.75 312.839844 315.539062 C 293.488281 306.714844 273.121094 296.546875 248.742188 283.535156 C 239.070312 278.375 229.277344 273.097656 219.804688 268 C 206.109375 260.628906 191.949219 253.003906 177.898438 245.574219 C 143.242188 227.257812 97.265625 203.640625 48.96875 183.46875 C 32.699219 176.675781 16.273438 170.398438 0 164.394531 L 0 165.273438 C 16.167969 171.246094 32.492188 177.484375 48.648438 184.234375 C 96.917969 204.394531 142.871094 227.996094 177.511719 246.308594 Z M 63.164062 386.214844 L 65.035156 386.214844 C 53.03125 380.300781 40.265625 373.722656 26.15625 366.1875 C 17.425781 361.53125 8.601562 356.785156 0 352.152344 L 0 353.09375 C 8.476562 357.65625 17.167969 362.332031 25.765625 366.917969 C 39.296875 374.140625 51.589844 380.488281 63.164062 386.214844 Z M 80.289062 308.320312 C 105.675781 317.5 131.929688 326.988281 157.769531 337.78125 C 194.722656 353.210938 230.316406 370.664062 260.519531 386.214844 L 262.328125 386.214844 C 231.804688 370.472656 195.652344 352.703125 158.089844 337.015625 C 132.230469 326.214844 105.96875 316.722656 80.570312 307.542969 C 63.148438 301.246094 45.132812 294.734375 27.394531 287.855469 C 18.183594 284.28125 9.054688 280.523438 0 276.632812 L 0 277.535156 C 8.957031 281.378906 17.984375 285.09375 27.097656 288.628906 C 44.839844 295.511719 62.859375 302.023438 80.289062 308.320312 Z M 750 47.167969 L 750 46.296875 C 727.625 39.035156 701.191406 29.667969 675.367188 17.726562 C 664.550781 12.722656 653.347656 7.003906 640.746094 0.0351562 L 639.039062 0.0351562 C 652.191406 7.34375 663.816406 13.292969 675.023438 18.476562 C 700.980469 30.480469 727.546875 39.886719 750 47.167969 Z M 616.746094 15.832031 C 643.710938 24.914062 671.597656 34.304688 699.261719 44.800781 C 717.210938 51.609375 734.160156 58.617188 750 65.773438 L 750 64.867188 C 734.238281 57.753906 717.394531 50.792969 699.558594 44.027344 C 671.875 33.523438 643.984375 24.132812 617.011719 15.046875 C 604.28125 10.757812 591.109375 6.324219 578.144531 1.832031 C 576.445312 1.246094 574.71875 0.644531 572.96875 0.0351562 L 570.457031 0.0351562 C 572.976562 0.917969 575.453125 1.777344 577.871094 2.617188 C 590.84375 7.109375 604.011719 11.542969 616.746094 15.832031 Z M 22.757812 94.308594 C 79.085938 115.164062 134.078125 135.878906 187.609375 159.976562 C 225.183594 176.886719 261.015625 196.03125 295.671875 214.542969 C 321.257812 228.214844 347.714844 242.351562 374.730469 255.519531 C 410.199219 272.800781 448.316406 288.359375 498.328125 305.964844 C 507.511719 309.199219 516.855469 312.453125 525.894531 315.601562 C 554.125 325.4375 582.921875 335.472656 611.683594 346.511719 C 616.90625 350.101562 622.230469 353.652344 627.667969 357.121094 C 644.464844 367.839844 662.53125 377.652344 681.144531 386.214844 L 683.128906 386.214844 C 663.972656 377.492188 645.378906 367.4375 628.113281 356.425781 C 623.6875 353.597656 619.335938 350.71875 615.054688 347.808594 C 634.621094 355.375 654.160156 363.417969 673.488281 372.203125 C 683.898438 376.933594 693.648438 381.574219 702.921875 386.214844 L 704.765625 386.214844 C 695.046875 381.324219 684.804688 376.433594 673.832031 371.445312 C 653.40625 362.167969 632.746094 353.710938 612.070312 345.773438 C 603.132812 339.632812 594.472656 333.390625 586.003906 327.28125 C 572.140625 317.28125 557.800781 306.941406 542.757812 297.460938 C 525.898438 286.835938 509.796875 278.367188 493.53125 271.5625 C 462.253906 258.472656 430.121094 248.757812 399.042969 239.359375 C 390.503906 236.777344 381.667969 234.105469 373.011719 231.414062 C 340.070312 221.160156 301.1875 208.226562 262.589844 190.03125 C 228.175781 173.800781 195.007812 154.960938 162.929688 136.742188 C 146.472656 127.394531 129.457031 117.726562 112.484375 108.535156 C 91.597656 97.222656 69.96875 86.105469 48.203125 75.496094 C 32.570312 67.871094 16.550781 60.382812 0 52.960938 L 0 53.867188 C 16.425781 61.234375 32.324219 68.671875 47.839844 76.238281 C 69.59375 86.84375 91.210938 97.957031 112.09375 109.265625 C 129.054688 118.453125 146.070312 128.117188 162.523438 137.460938 C 194.609375 155.691406 227.792969 174.539062 262.238281 190.777344 C 300.878906 208.996094 339.796875 221.941406 372.769531 232.203125 C 381.425781 234.898438 390.261719 237.570312 398.804688 240.152344 C 429.859375 249.542969 461.972656 259.253906 493.214844 272.324219 C 509.433594 279.113281 525.496094 287.5625 542.316406 298.160156 C 557.34375 307.628906 571.667969 317.960938 585.515625 327.953125 C 593.109375 333.425781 600.839844 339.003906 608.792969 344.519531 C 581.082031 333.953125 553.363281 324.296875 526.164062 314.820312 C 517.128906 311.671875 507.78125 308.417969 498.601562 305.183594 C 448.625 287.589844 410.535156 272.039062 375.09375 254.773438 C 348.09375 241.613281 321.640625 227.480469 296.0625 213.816406 C 261.394531 195.292969 225.546875 176.144531 187.949219 159.21875 C 134.394531 135.113281 79.386719 114.390625 23.046875 93.53125 L 22.519531 93.335938 C 15.117188 90.59375 7.59375 87.808594 0 84.972656 L 0 85.855469 C 7.496094 88.65625 14.921875 91.40625 22.234375 94.113281 Z M 750 56.65625 L 750 55.765625 L 720.609375 44.0625 C 688.964844 31.40625 652.414062 16.585938 614.226562 0.0351562 L 612.148438 0.0351562 C 650.976562 16.898438 688.167969 31.980469 720.300781 44.828125 Z M 219.28125 60.140625 C 259.09375 78.894531 300.261719 98.285156 341.921875 116.84375 C 388.640625 137.65625 433.96875 156.074219 472.152344 171.34375 L 502.265625 183.335938 C 538.152344 197.597656 575.253906 212.34375 612.53125 228.402344 C 655.679688 246.992188 690.894531 264.917969 728.171875 283.898438 C 735.34375 287.546875 742.621094 291.25 750 294.980469 L 750 294.054688 C 742.75 290.386719 735.597656 286.75 728.546875 283.15625 C 691.257812 264.171875 656.035156 246.242188 612.859375 227.644531 C 575.574219 211.578125 538.457031 196.832031 502.570312 182.566406 L 472.460938 170.574219 C 434.285156 155.308594 388.964844 136.894531 342.261719 116.089844 C 300.609375 97.535156 259.441406 78.144531 219.632812 59.390625 C 199.21875 49.773438 178.105469 39.832031 157.203125 30.128906 C 135.679688 20.140625 113.636719 10.042969 91.503906 0.0351562 L 89.496094 0.0351562 C 112.1875 10.289062 134.792969 20.640625 156.855469 30.878906 C 177.757812 40.582031 198.863281 50.523438 219.28125 60.140625 Z M 750 20.945312 L 750 20.058594 C 743.160156 17.441406 736.359375 14.851562 729.703125 12.320312 C 719.167969 8.3125 708.46875 4.242188 697.601562 0.0351562 L 695.308594 0.0351562 C 706.863281 4.515625 718.230469 8.839844 729.410156 13.09375 C 736.160156 15.664062 743.058594 18.289062 750 20.945312 Z M 170.71875 106.011719 C 190.367188 117.253906 210.402344 128.375 230.800781 138.808594 C 274.324219 161.0625 321.769531 179.710938 384.644531 199.277344 C 396.183594 202.871094 407.9375 206.464844 419.304688 209.941406 C 480.378906 228.625 543.535156 247.945312 603.820312 275.785156 C 606.777344 277.148438 609.6875 278.515625 612.550781 279.878906 C 614.664062 281.753906 616.773438 283.621094 618.867188 285.484375 C 633.214844 298.230469 647.910156 311.273438 663.023438 323.847656 C 622.625 307.164062 581.925781 292.992188 542.507812 279.261719 C 531.070312 275.28125 519.25 271.164062 507.648438 267.058594 C 463.476562 251.433594 411.175781 232.222656 358.191406 208.238281 C 310.945312 186.851562 264.785156 163.304688 220.144531 140.53125 C 197.246094 128.851562 173.566406 116.773438 150.050781 105.140625 C 144.574219 102.433594 139.066406 99.726562 133.53125 97.023438 C 145.28125 100.054688 157.609375 103.03125 170.71875 106.011719 Z M 193.667969 111.0625 C 215.484375 115.714844 237.742188 119.976562 259.269531 124.097656 C 261.585938 124.539062 263.910156 124.984375 266.238281 125.429688 C 269.980469 127.199219 273.664062 128.910156 277.3125 130.574219 C 321.675781 150.800781 366.695312 167.019531 400.960938 178.886719 C 413.933594 183.378906 427.101562 187.8125 439.835938 192.101562 C 466.800781 201.183594 494.683594 210.574219 522.355469 221.074219 C 536.566406 226.464844 550.152344 231.980469 563.058594 237.597656 C 579.265625 250.582031 595 264.328125 610.324219 277.910156 C 608.296875 276.949219 606.242188 275.992188 604.167969 275.035156 C 543.828125 247.171875 480.648438 227.84375 419.546875 209.148438 C 408.179688 205.671875 396.425781 202.078125 384.890625 198.488281 C 322.0625 178.9375 274.65625 160.304688 231.179688 138.070312 C 211.605469 128.0625 192.367188 117.414062 173.480469 106.636719 C 180.007812 108.109375 186.726562 109.582031 193.667969 111.0625 Z M 397.675781 155.128906 C 427.507812 163.800781 455.398438 174.238281 480.574219 186.152344 C 508.539062 199.382812 533.839844 214.753906 555.78125 231.847656 C 557.386719 233.097656 558.984375 234.355469 560.582031 235.621094 C 548.503906 230.417969 535.84375 225.304688 522.644531 220.296875 C 494.964844 209.796875 467.070312 200.402344 440.097656 191.316406 C 427.367188 187.03125 414.199219 182.597656 401.230469 178.105469 C 366.984375 166.242188 321.988281 150.035156 277.65625 129.820312 C 274.96875 128.597656 272.257812 127.34375 269.523438 126.058594 C 311.894531 134.195312 355.40625 142.835938 397.675781 155.128906 Z M 129.484375 95.972656 C 136.257812 99.269531 142.992188 102.574219 149.683594 105.882812 C 173.195312 117.511719 196.871094 129.589844 219.765625 141.269531 C 264.417969 164.042969 310.585938 187.597656 357.847656 208.992188 C 410.863281 232.992188 463.183594 252.210938 507.367188 267.839844 C 518.976562 271.945312 530.796875 276.0625 542.230469 280.042969 C 582.453125 294.050781 623.992188 308.515625 665.175781 325.636719 C 671.144531 330.574219 677.175781 335.429688 683.28125 340.160156 C 706.386719 358.066406 728.273438 372.382812 750 383.796875 L 750 382.863281 C 728.445312 371.503906 706.71875 357.277344 683.789062 339.507812 C 678.414062 335.339844 673.089844 331.074219 667.816406 326.742188 C 668.339844 326.960938 668.863281 327.175781 669.382812 327.394531 C 699.132812 339.90625 725.070312 353.324219 750 367.40625 L 750 366.453125 C 725.171875 352.441406 699.328125 339.089844 669.703125 326.632812 C 668.339844 326.058594 666.976562 325.488281 665.609375 324.921875 C 649.78125 311.828125 634.414062 298.183594 619.417969 284.863281 C 618.039062 283.636719 616.648438 282.410156 615.261719 281.175781 C 632.734375 289.582031 648.613281 298.039062 663.515625 306.867188 C 676.164062 314.363281 688.683594 322.371094 700.785156 330.117188 C 716.683594 340.285156 732.945312 350.6875 750 360.246094 L 750 359.300781 C 733.109375 349.8125 716.992188 339.5 701.230469 329.417969 C 689.121094 321.671875 676.601562 313.660156 663.9375 306.15625 C 648.277344 296.875 631.542969 288.007812 613.011719 279.183594 C 597.746094 265.644531 582.082031 251.902344 565.945312 238.863281 C 586.621094 247.957031 605.523438 257.308594 622.441406 266.832031 C 637.164062 275.117188 651.621094 283.777344 665.605469 292.148438 C 692.121094 308.027344 719.484375 324.410156 750 339.074219 L 750 338.152344 C 719.664062 323.550781 692.429688 307.246094 666.027344 291.4375 C 652.039062 283.0625 637.578125 274.402344 622.84375 266.109375 C 605.144531 256.148438 585.277344 246.367188 563.480469 236.878906 C 561.09375 234.964844 558.699219 233.070312 556.289062 231.191406 C 534.300781 214.066406 508.945312 198.65625 480.929688 185.402344 C 455.710938 173.472656 427.78125 163.019531 397.90625 154.332031 C 354.542969 141.722656 309.890625 132.953125 266.5 124.636719 C 250.417969 117.03125 233.304688 108.359375 213.558594 97.820312 C 203.894531 92.660156 194.109375 87.394531 184.648438 82.296875 C 170.941406 74.921875 156.773438 67.292969 142.714844 59.859375 C 109.355469 42.226562 65.511719 19.6875 19.199219 0.0351562 L 17.078125 0.0351562 C 64.023438 19.851562 108.550781 42.738281 142.328125 60.59375 C 156.382812 68.023438 170.554688 75.648438 184.253906 83.027344 C 193.71875 88.121094 203.503906 93.390625 213.167969 98.550781 C 231.753906 108.46875 248.011719 116.738281 263.265625 124.019531 C 261.984375 123.773438 260.703125 123.527344 259.425781 123.28125 C 237.902344 119.164062 215.648438 114.902344 193.839844 110.25 C 185.964844 108.570312 178.367188 106.898438 171.023438 105.230469 C 158.785156 98.226562 146.695312 91.179688 134.761719 84.21875 C 92.589844 59.625 48.980469 34.191406 2.535156 13.042969 C 1.691406 12.660156 0.84375 12.28125 0 11.898438 L 0 12.804688 C 0.730469 13.136719 1.460938 13.464844 2.191406 13.796875 C 48.601562 34.929688 92.191406 60.351562 134.347656 84.933594 C 145.511719 91.449219 156.816406 98.039062 168.253906 104.597656 C 154.667969 101.484375 141.917969 98.371094 129.773438 95.191406 C 107.234375 84.222656 84.289062 73.332031 61.300781 62.703125 C 41.324219 53.464844 20.945312 44.269531 0 35.046875 L 0 35.953125 C 20.820312 45.125 41.085938 54.269531 60.953125 63.453125 C 82.652344 73.488281 104.316406 83.753906 125.632812 94.101562 C 113.503906 90.878906 101.957031 87.585938 90.753906 84.160156 C 57.550781 74.007812 27.757812 62.785156 0 49.960938 L 0 50.875 C 27.691406 63.644531 57.410156 74.828125 90.515625 84.953125 C 102.96875 88.761719 115.847656 92.40625 129.484375 95.972656 Z M 593.867188 62.34375 C 599.628906 65.21875 605.449219 68.105469 611.347656 70.988281 C 647.484375 88.648438 686.632812 106.222656 724.566406 121.8125 C 733.144531 125.335938 741.621094 128.730469 750 132.03125 L 750 131.140625 C 741.722656 127.878906 733.351562 124.527344 724.882812 121.046875 C 686.964844 105.464844 647.832031 87.898438 611.710938 70.242188 C 607.09375 67.988281 602.527344 65.730469 598 63.476562 C 607.082031 65.953125 616.425781 68.410156 626.0625 70.847656 C 642.894531 75.109375 660.050781 79.324219 676.644531 83.398438 C 690.890625 86.894531 705.285156 90.433594 719.738281 94.0625 C 729.773438 98.734375 739.863281 103.40625 750 108.050781 L 750 107.140625 C 741.300781 103.152344 732.640625 99.148438 724.011719 95.136719 C 732.667969 97.320312 741.332031 99.539062 750 101.800781 L 750 100.945312 C 739.996094 98.332031 729.996094 95.78125 720.019531 93.277344 C 701.527344 84.664062 683.226562 76.046875 665.203125 67.558594 C 644.789062 57.941406 623.675781 47.996094 602.765625 38.292969 C 577.039062 26.351562 550.585938 14.261719 524.136719 2.367188 C 522.410156 1.589844 520.679688 0.8125 518.949219 0.0351562 L 516.925781 0.0351562 C 519.222656 1.066406 521.511719 2.09375 523.796875 3.121094 C 550.242188 15.019531 576.695312 27.101562 602.414062 39.042969 C 623.324219 48.746094 644.433594 58.691406 664.855469 68.308594 C 681.609375 76.203125 698.605469 84.207031 715.777344 92.214844 C 702.71875 88.949219 689.714844 85.757812 676.839844 82.59375 C 660.25 78.519531 643.089844 74.304688 626.265625 70.046875 C 615.195312 67.246094 604.511719 64.421875 594.167969 61.566406 C 581.730469 55.359375 569.609375 49.1875 557.761719 43.15625 C 528.808594 28.417969 501.101562 14.3125 469.953125 0.0351562 L 467.964844 0.0351562 C 499.773438 14.5625 527.933594 28.902344 557.386719 43.894531 C 568.03125 49.3125 578.894531 54.84375 590.011719 60.414062 C 562.191406 52.648438 536.867188 44.636719 513.304688 36.160156 C 482.707031 25.152344 454.648438 13.25 428.195312 0.0351562 L 426.347656 0.0351562 C 453.261719 13.558594 481.828125 25.714844 513.023438 36.9375 C 537.753906 45.835938 564.417969 54.21875 593.867188 62.34375 Z M 551.863281 78.695312 C 590.691406 96.578125 629.722656 109.328125 662.789062 119.441406 C 671.472656 122.09375 680.328125 124.730469 688.890625 127.277344 C 708.988281 133.253906 729.53125 139.363281 750 146.394531 L 750 145.519531 C 729.601562 138.519531 709.144531 132.433594 689.132812 126.484375 C 680.5625 123.9375 671.710938 121.300781 663.027344 118.648438 C 629.996094 108.542969 590.992188 95.804688 552.207031 77.941406 C 517.621094 62.011719 484.238281 43.542969 451.960938 25.683594 C 436.625 17.195312 420.804688 8.441406 404.992188 0.0351562 L 403.226562 0.0351562 C 419.492188 8.660156 435.78125 17.675781 451.558594 26.40625 C 483.851562 44.277344 517.242188 62.753906 551.863281 78.695312 Z M 97.839844 386.214844 L 99.691406 386.214844 C 95.09375 383.914062 90.496094 381.628906 85.902344 379.355469 C 57.863281 365.488281 28.980469 351.664062 0 338.234375 L 0 339.148438 C 28.855469 352.523438 57.613281 366.289062 85.535156 380.097656 C 89.632812 382.125 93.738281 384.164062 97.839844 386.214844 Z M 213.46875 386.214844 L 215.339844 386.214844 C 215.28125 386.183594 215.222656 386.15625 215.164062 386.128906 C 186.199219 371.804688 156.339844 357.523438 126.414062 343.691406 C 86.339844 325.160156 44.632812 306.789062 0 288.035156 L 0 288.9375 C 44.5 307.636719 86.09375 325.960938 126.070312 344.441406 C 155.527344 358.0625 184.925781 372.113281 213.46875 386.214844 Z M 147.722656 259.230469 C 171.238281 270.855469 194.914062 282.933594 217.808594 294.613281 C 262.457031 317.390625 308.628906 340.941406 355.890625 362.335938 C 374.773438 370.886719 393.566406 378.828125 411.9375 386.214844 L 414.160156 386.214844 C 395.191406 378.613281 375.757812 370.421875 356.230469 361.582031 C 308.988281 340.195312 262.828125 316.648438 218.183594 293.875 C 195.285156 282.195312 171.609375 270.117188 148.089844 258.488281 C 119.128906 244.164062 89.269531 229.886719 59.339844 216.046875 C 39.988281 207.101562 20.257812 198.1875 0 189.253906 L 0 190.160156 C 20.136719 199.042969 39.753906 207.902344 58.996094 216.796875 C 88.914062 230.632812 118.769531 244.910156 147.722656 259.230469 Z M 122.222656 386.214844 C 83.597656 368.835938 43.21875 351.460938 0 333.652344 L 0 334.546875 C 42.464844 352.050781 82.191406 369.132812 120.203125 386.214844 Z M 15.558594 386.214844 L 17.191406 386.214844 C 11.480469 382.851562 5.761719 379.519531 0 376.222656 L 0 377.175781 C 5.210938 380.160156 10.386719 383.175781 15.558594 386.214844 Z M 108.40625 161.46875 C 154.8125 182.601562 198.402344 208.023438 240.558594 232.609375 C 264.445312 246.539062 288.960938 260.832031 314.050781 274.390625 C 290.957031 268.449219 271.121094 262.726562 252.507812 256.652344 C 225.273438 247.765625 201.019531 238.214844 178.367188 227.453125 C 155.480469 216.578125 131.835938 203.074219 103.960938 184.949219 C 92.90625 177.761719 81.734375 170.375 70.929688 163.234375 C 55.289062 152.894531 39.117188 142.199219 23 131.914062 C 15.035156 126.828125 7.429688 122.054688 0.105469 117.546875 C 36.878906 131.035156 73.03125 145.359375 108.40625 161.46875 Z M 328.382812 278.855469 C 344.445312 282.824219 360.8125 286.558594 376.640625 290.167969 C 410.15625 297.816406 444.8125 305.722656 478.605469 316.316406 C 525.289062 330.953125 565.085938 349.96875 596.890625 372.832031 C 602.066406 376.554688 607.1875 380.371094 612.257812 384.242188 C 583.308594 374.429688 554.304688 365.554688 525.757812 356.824219 C 514.394531 353.34375 502.644531 349.75 491.101562 346.160156 C 428.273438 326.609375 380.867188 307.976562 337.394531 285.742188 C 331.703125 282.832031 326.042969 279.871094 320.414062 276.867188 C 323.027344 277.527344 325.683594 278.1875 328.382812 278.855469 Z M 70.476562 163.925781 C 81.277344 171.070312 92.449219 178.457031 103.507812 185.644531 C 131.417969 203.789062 155.089844 217.3125 178.011719 228.199219 C 200.695312 238.976562 224.980469 248.542969 252.25 257.441406 C 271.742188 263.800781 292.574219 269.777344 317.078125 276.019531 C 323.683594 279.566406 330.328125 283.058594 337.015625 286.480469 C 380.535156 308.734375 427.980469 327.382812 490.859375 346.953125 C 502.398438 350.542969 514.152344 354.136719 525.515625 357.613281 C 554.816406 366.578125 584.597656 375.6875 614.304688 385.816406 C 614.480469 385.949219 614.652344 386.082031 614.824219 386.214844 L 618.03125 386.214844 C 616.925781 385.832031 615.808594 385.453125 614.703125 385.074219 C 608.996094 380.6875 603.222656 376.363281 597.378906 372.160156 C 565.496094 349.242188 525.621094 330.191406 478.855469 315.527344 C 445.027344 304.921875 410.355469 297.011719 376.824219 289.363281 C 361 285.75 344.636719 282.019531 328.582031 278.054688 C 324.757812 277.109375 321.03125 276.171875 317.378906 275.242188 C 291.273438 261.222656 265.789062 246.363281 240.976562 231.890625 C 198.804688 207.296875 155.195312 181.867188 108.75 160.714844 C 73.226562 144.539062 36.925781 130.164062 0 116.628906 L 0 118.457031 C 7.21875 122.902344 14.710938 127.605469 22.554688 132.609375 C 38.667969 142.894531 54.835938 153.585938 70.476562 163.925781 Z M 137.871094 286.386719 C 184.554688 301.023438 224.351562 320.035156 256.15625 342.902344 C 261.632812 346.835938 267.042969 350.882812 272.398438 354.984375 C 266.90625 353.34375 261.367188 351.679688 255.902344 350.007812 C 222.867188 339.90625 183.863281 327.164062 145.078125 309.300781 C 116.269531 296.035156 88.300781 281.003906 61.105469 266.03125 C 86.613281 271.984375 112.484375 278.425781 137.871094 286.386719 Z M 58.132812 265.339844 C 86.148438 280.789062 114.988281 296.359375 144.730469 310.054688 C 183.5625 327.9375 222.597656 340.6875 255.65625 350.800781 C 261.820312 352.683594 268.066406 354.554688 274.238281 356.394531 C 284.5 364.300781 294.542969 372.398438 304.375 380.324219 C 306.804688 382.285156 309.242188 384.25 311.6875 386.214844 L 313.007812 386.214844 C 310.292969 384.03125 307.589844 381.851562 304.894531 379.679688 C 295.601562 372.1875 286.121094 364.546875 276.441406 357.054688 C 278.222656 357.582031 280 358.113281 281.757812 358.636719 C 309.492188 366.882812 338.0625 375.378906 366.148438 386.214844 L 368.4375 386.214844 C 339.683594 374.996094 310.398438 366.285156 281.996094 357.839844 C 279.558594 357.117188 277.097656 356.382812 274.621094 355.644531 C 268.703125 351.089844 262.710938 346.59375 256.640625 342.230469 C 224.761719 319.3125 184.886719 300.257812 138.117188 285.59375 C 111.757812 277.332031 84.882812 270.703125 58.433594 264.558594 C 53.878906 262.046875 49.339844 259.535156 44.828125 257.039062 C 30.183594 248.9375 15.097656 240.589844 0 232.535156 L 0 233.472656 C 14.960938 241.460938 29.910156 249.730469 44.425781 257.765625 C 48.097656 259.796875 51.78125 261.832031 55.476562 263.875 C 48.984375 262.371094 42.515625 260.898438 36.089844 259.429688 C 24.242188 256.726562 12.09375 253.957031 0 251.070312 L 0 251.921875 C 12.035156 254.792969 24.121094 257.550781 35.90625 260.238281 C 43.265625 261.917969 50.683594 263.609375 58.132812 265.339844 Z M 382.734375 59.65625 C 375.296875 57.445312 368.144531 55.21875 361.160156 52.9375 C 333.921875 44.050781 309.671875 34.5 287.015625 23.738281 C 282.542969 21.609375 278.042969 19.382812 273.484375 17.042969 C 310.609375 30.015625 347.089844 43.910156 382.734375 59.65625 Z M 587.253906 112.597656 C 599.355469 116.394531 610.996094 120.484375 622.15625 124.859375 C 638.6875 132.886719 655.808594 140.882812 673.128906 148.664062 C 684.703125 155.089844 695.523438 161.910156 705.542969 169.117188 C 717.609375 177.789062 729.378906 186.992188 740.867188 196.175781 L 712.636719 184.933594 C 674.464844 169.667969 629.148438 151.253906 582.4375 130.445312 C 550.628906 116.273438 519.101562 101.617188 488.242188 87.125 C 520.839844 94.5625 554.453125 102.316406 587.253906 112.597656 Z M 661.609375 142.53125 C 652.601562 138.410156 643.667969 134.242188 634.867188 130.054688 C 644.148438 134.007812 653.066406 138.167969 661.609375 142.53125 Z M 286.664062 24.484375 C 309.347656 35.261719 333.632812 44.824219 360.902344 53.722656 C 369.726562 56.605469 378.832031 59.40625 388.421875 62.1875 C 391.277344 63.46875 394.125 64.757812 396.96875 66.0625 C 448.398438 89.664062 496.203125 119.167969 542.429688 147.699219 C 576.5625 168.765625 611.859375 190.550781 648.425781 209.851562 C 674.402344 223.566406 701.945312 235.804688 732.621094 247.265625 C 738.285156 249.378906 744.070312 251.472656 750 253.550781 L 750 252.675781 C 744.171875 250.628906 738.484375 248.570312 732.910156 246.488281 C 702.265625 235.039062 674.757812 222.816406 648.816406 209.121094 C 612.273438 189.832031 576.984375 168.054688 542.863281 146.996094 C 496.617188 118.449219 448.789062 88.933594 397.316406 65.3125 C 396.195312 64.796875 395.074219 64.285156 393.957031 63.777344 C 407.167969 67.527344 421.347656 71.265625 437.03125 75.140625 C 452.8125 79.039062 468.886719 82.710938 484.453125 86.261719 C 516.410156 101.277344 549.101562 116.5 582.101562 131.199219 C 628.828125 152.015625 674.152344 170.433594 712.332031 185.703125 L 742.4375 197.691406 C 742.648438 197.777344 742.867188 197.863281 743.085938 197.949219 C 745.398438 199.808594 747.710938 201.660156 750 203.507812 L 750 202.445312 C 748.574219 201.296875 747.144531 200.144531 745.707031 198.992188 C 747.140625 199.558594 748.566406 200.128906 750 200.699219 L 750 199.808594 C 747.832031 198.945312 745.667969 198.085938 743.503906 197.226562 C 731.339844 187.472656 718.851562 177.664062 706.027344 168.445312 C 698.121094 162.761719 689.730469 157.320312 680.859375 152.121094 C 697.664062 159.589844 714.601562 166.839844 731.300781 173.703125 C 737.589844 176.285156 743.820312 178.796875 750 181.257812 L 750 180.367188 C 743.925781 177.949219 737.796875 175.476562 731.617188 172.933594 C 712.371094 165.027344 692.816406 156.605469 673.496094 147.921875 C 657.847656 139.242188 640.816406 131.285156 622.488281 124.097656 C 621.136719 123.445312 619.789062 122.789062 618.445312 122.132812 C 599.792969 113.011719 581.847656 103.878906 564.503906 95.046875 C 527.210938 76.0625 491.984375 58.132812 448.8125 39.53125 C 416.367188 25.550781 384.050781 12.570312 352.554688 0.0351562 L 350.316406 0.0351562 C 382.417969 12.804688 415.382812 26.027344 448.484375 40.289062 C 491.632812 58.882812 526.84375 76.808594 564.125 95.785156 C 580.179688 103.957031 596.734375 112.386719 613.894531 120.824219 C 605.359375 117.65625 596.5625 114.648438 587.503906 111.808594 C 553.679688 101.203125 519.003906 93.292969 485.472656 85.644531 C 485.226562 85.589844 484.972656 85.53125 484.726562 85.472656 C 476.375 81.550781 468.070312 77.636719 459.824219 73.753906 C 439.40625 64.136719 418.292969 54.191406 397.382812 44.484375 C 371.671875 32.550781 345.214844 20.464844 318.75 8.558594 C 312.453125 5.726562 306.109375 2.886719 299.722656 0.0351562 L 297.6875 0.0351562 C 304.648438 3.140625 311.554688 6.230469 318.410156 9.316406 C 344.871094 21.21875 371.324219 33.304688 397.03125 45.238281 C 417.941406 54.941406 439.050781 64.886719 459.472656 74.503906 C 466.585938 77.855469 473.746094 81.226562 480.945312 84.609375 C 466.535156 81.324219 451.757812 77.925781 437.230469 74.335938 C 419.367188 69.921875 403.457031 65.6875 388.710938 61.410156 C 349.546875 43.851562 309.367188 28.59375 268.417969 14.402344 C 260.136719 10.035156 251.648438 5.273438 242.800781 0.0351562 L 241.179688 0.0351562 C 248.839844 4.589844 256.230469 8.789062 263.441406 12.683594 C 250.941406 8.386719 238.371094 4.179688 225.742188 0.0351562 L 223.085938 0.0351562 C 238.179688 4.976562 253.183594 10 268.085938 15.164062 C 274.378906 18.484375 280.546875 21.578125 286.664062 24.484375 Z M 130.859375 386.214844 L 132.640625 386.214844 C 103.316406 370.796875 74.757812 354.140625 47.035156 337.976562 C 31.574219 328.957031 15.917969 319.828125 0 310.835938 L 0 311.789062 C 15.773438 320.703125 31.292969 329.75 46.621094 338.691406 C 73.90625 354.605469 102.011719 370.992188 130.859375 386.214844 "/></g></svg>