<svg xmlns="http://www.w3.org/2000/svg" xmlns:xlink="http://www.w3.org/1999/xlink" width="500" zoomAndPan="magnify" viewBox="0 0 375 374.999991" height="500" preserveAspectRatio="xMidYMid meet" version="1.2"><defs/><g id="9e5f5726e6"><g style="fill:#ffffff;fill-opacity:1;"><g transform="translate(13.369674, 216.875496)"><path style="stroke:none" d="M 25.3125 -4.953125 C 26.675781 -4.953125 27.734375 -5.0625 28.484375 -5.28125 C 29.234375 -5.507812 29.910156 -5.859375 30.515625 -6.328125 C 31.128906 -6.796875 31.800781 -7.445312 32.53125 -8.28125 C 33.269531 -9.113281 34 -10.195312 34.71875 -11.53125 C 35.445312 -12.863281 36.1875 -14.53125 36.9375 -16.53125 L 42.59375 -16.53125 L 38.359375 0 L 0.25 0 L 0.828125 -2.75 C 1.992188 -3.082031 2.890625 -3.539062 3.515625 -4.125 C 4.140625 -4.707031 4.671875 -5.53125 5.109375 -6.59375 C 5.554688 -7.664062 6.003906 -9.21875 6.453125 -11.25 L 14.03125 -45.59375 C 14.394531 -47.226562 14.578125 -48.851562 14.578125 -50.46875 C 14.578125 -51.632812 14.304688 -52.488281 13.765625 -53.03125 C 13.222656 -53.570312 12.34375 -53.925781 11.125 -54.09375 L 11.703125 -56.84375 L 32.640625 -56.84375 L 32.0625 -54.09375 C 30.894531 -53.757812 30 -53.300781 29.375 -52.71875 C 28.75 -52.132812 28.210938 -51.304688 27.765625 -50.234375 C 27.328125 -49.171875 26.882812 -47.625 26.4375 -45.59375 L 17.453125 -4.953125 Z M 25.3125 -4.953125 "/></g></g><g style="fill:#ffffff;fill-opacity:1;"><g transform="translate(62.936974, 216.875496)"><path style="stroke:none" d="M 21.203125 0 L 0.25 0 L 0.828125 -2.75 C 1.992188 -3.082031 2.890625 -3.539062 3.515625 -4.125 C 4.140625 -4.707031 4.671875 -5.53125 5.109375 -6.59375 C 5.554688 -7.664062 6.003906 -9.21875 6.453125 -11.25 L 14.03125 -45.59375 C 14.394531 -47.226562 14.578125 -48.851562 14.578125 -50.46875 C 14.578125 -51.632812 14.304688 -52.488281 13.765625 -53.03125 C 13.222656 -53.570312 12.34375 -53.925781 11.125 -54.09375 L 11.703125 -56.84375 L 32.640625 -56.84375 L 32.0625 -54.09375 C 30.894531 -53.757812 30 -53.300781 29.375 -52.71875 C 28.75 -52.132812 28.210938 -51.304688 27.765625 -50.234375 C 27.328125 -49.171875 26.882812 -47.625 26.4375 -45.59375 L 18.859375 -11.25 C 18.691406 -10.519531 18.582031 -9.945312 18.53125 -9.53125 C 18.476562 -9.113281 18.429688 -8.660156 18.390625 -8.171875 C 18.347656 -7.691406 18.328125 -7.09375 18.328125 -6.375 C 18.328125 -5.207031 18.597656 -4.351562 19.140625 -3.8125 C 19.679688 -3.269531 20.5625 -2.914062 21.78125 -2.75 Z M 21.203125 0 "/></g></g><g style="fill:#ffffff;fill-opacity:1;"><g transform="translate(96.307037, 216.875496)"><path style="stroke:none" d="M 30.9375 -56.84375 L 34.1875 -22.0625 L 53.921875 -56.84375 L 73.28125 -56.84375 L 72.703125 -54.09375 C 71.535156 -53.757812 70.640625 -53.300781 70.015625 -52.71875 C 69.390625 -52.132812 68.851562 -51.304688 68.40625 -50.234375 C 67.96875 -49.171875 67.523438 -47.625 67.078125 -45.59375 L 59.5 -11.25 C 59.332031 -10.519531 59.222656 -9.945312 59.171875 -9.53125 C 59.117188 -9.113281 59.070312 -8.660156 59.03125 -8.171875 C 58.988281 -7.691406 58.96875 -7.09375 58.96875 -6.375 C 58.96875 -5.207031 59.238281 -4.351562 59.78125 -3.8125 C 60.320312 -3.269531 61.203125 -2.914062 62.421875 -2.75 L 61.84375 0 L 40.890625 0 L 41.46875 -2.75 C 42.632812 -3.082031 43.53125 -3.539062 44.15625 -4.125 C 44.78125 -4.707031 45.316406 -5.53125 45.765625 -6.59375 C 46.210938 -7.664062 46.65625 -9.21875 47.09375 -11.25 L 50.921875 -28.734375 C 51.335938 -30.617188 51.9375 -33.132812 52.71875 -36.28125 C 53.5 -39.4375 54.398438 -42.738281 55.421875 -46.1875 L 54.59375 -46.1875 C 53.289062 -43.789062 51.890625 -41.300781 50.390625 -38.71875 L 31.640625 -6.28125 L 24.90625 -6.28125 L 22.15625 -31.3125 C 21.789062 -34.476562 21.519531 -37.238281 21.34375 -39.59375 C 21.164062 -41.957031 21.019531 -44.289062 20.90625 -46.59375 L 20.234375 -46.59375 C 19.847656 -44.039062 19.347656 -41.117188 18.734375 -37.828125 C 18.128906 -34.535156 17.578125 -31.769531 17.078125 -29.53125 L 13.03125 -11.25 C 12.863281 -10.519531 12.753906 -9.945312 12.703125 -9.53125 C 12.648438 -9.113281 12.601562 -8.660156 12.5625 -8.171875 C 12.519531 -7.691406 12.5 -7.09375 12.5 -6.375 C 12.5 -5.207031 12.765625 -4.351562 13.296875 -3.8125 C 13.835938 -3.269531 14.722656 -2.914062 15.953125 -2.75 L 15.359375 0 L 0.078125 0 L 0.671875 -2.75 C 1.835938 -3.082031 2.726562 -3.539062 3.34375 -4.125 C 3.96875 -4.707031 4.503906 -5.53125 4.953125 -6.59375 C 5.398438 -7.664062 5.84375 -9.21875 6.28125 -11.25 L 13.859375 -45.59375 C 14.222656 -47.226562 14.40625 -48.851562 14.40625 -50.46875 C 14.40625 -51.632812 14.132812 -52.488281 13.59375 -53.03125 C 13.050781 -53.570312 12.171875 -53.925781 10.953125 -54.09375 L 11.53125 -56.84375 Z M 30.9375 -56.84375 "/></g></g><g style="fill:#ffffff;fill-opacity:1;"><g transform="translate(170.357567, 216.875496)"><path style="stroke:none" d="M 0.25 0 L 0.828125 -2.75 C 1.992188 -3.082031 2.890625 -3.539062 3.515625 -4.125 C 4.140625 -4.707031 4.671875 -5.53125 5.109375 -6.59375 C 5.554688 -7.664062 6.003906 -9.21875 6.453125 -11.25 L 14.03125 -45.59375 C 14.394531 -47.226562 14.578125 -48.851562 14.578125 -50.46875 C 14.578125 -51.632812 14.304688 -52.488281 13.765625 -53.03125 C 13.222656 -53.570312 12.34375 -53.925781 11.125 -54.09375 L 11.703125 -56.84375 L 28.5625 -56.84375 C 32.53125 -56.84375 35.765625 -56.660156 38.265625 -56.296875 C 40.765625 -55.929688 42.957031 -55.347656 44.84375 -54.546875 C 46.070312 -53.992188 47.390625 -53.257812 48.796875 -52.34375 C 50.210938 -51.425781 51.5 -50.175781 52.65625 -48.59375 C 53.8125 -47.007812 54.691406 -45.117188 55.296875 -42.921875 C 55.910156 -40.734375 56.21875 -38.296875 56.21875 -35.609375 C 56.21875 -31.910156 55.800781 -28.367188 54.96875 -24.984375 C 54.132812 -21.597656 52.90625 -18.46875 51.28125 -15.59375 C 49.65625 -12.71875 47.710938 -10.242188 45.453125 -8.171875 C 43.191406 -6.109375 40.921875 -4.5 38.640625 -3.34375 C 36.367188 -2.195312 33.800781 -1.351562 30.9375 -0.8125 C 28.082031 -0.269531 24.695312 0 20.78125 0 Z M 17.484375 -5.078125 C 18.765625 -4.960938 19.796875 -4.90625 20.578125 -4.90625 C 24.148438 -4.90625 27.234375 -5.613281 29.828125 -7.03125 C 32.429688 -8.445312 34.738281 -10.601562 36.75 -13.5 C 38.757812 -16.40625 40.335938 -19.945312 41.484375 -24.125 C 42.640625 -28.300781 43.21875 -32.503906 43.21875 -36.734375 C 43.21875 -39.585938 42.898438 -41.984375 42.265625 -43.921875 C 41.628906 -45.867188 40.75 -47.4375 39.625 -48.625 C 38.5 -49.820312 37.191406 -50.675781 35.703125 -51.1875 C 34.222656 -51.707031 32.648438 -51.96875 30.984375 -51.96875 C 29.597656 -51.96875 28.53125 -51.941406 27.78125 -51.890625 Z M 17.484375 -5.078125 "/></g></g><g style="fill:#ffffff;fill-opacity:1;"><g transform="translate(229.107196, 211.791148)"><path style="stroke:none" d="M 19.625 -30.5 C 21.988281 -30.5 24.054688 -30.070312 25.828125 -29.21875 C 27.597656 -28.363281 28.976562 -27.097656 29.96875 -25.421875 C 30.957031 -23.742188 31.453125 -21.640625 31.453125 -19.109375 C 31.453125 -18.546875 31.429688 -17.953125 31.390625 -17.328125 C 31.347656 -16.703125 31.265625 -16.054688 31.140625 -15.390625 L 30.84375 -14.171875 L 7.296875 -14.171875 C 7.171875 -13.316406 7.109375 -12.453125 7.109375 -11.578125 C 7.109375 -9.804688 7.453125 -8.332031 8.140625 -7.15625 C 8.835938 -5.988281 9.785156 -5.113281 10.984375 -4.53125 C 12.191406 -3.945312 13.535156 -3.65625 15.015625 -3.65625 C 16.929688 -3.65625 18.753906 -4.171875 20.484375 -5.203125 C 22.210938 -6.234375 23.640625 -7.59375 24.765625 -9.28125 L 29.1875 -8 C 28.164062 -6.207031 26.90625 -4.671875 25.40625 -3.390625 C 23.914062 -2.109375 22.285156 -1.125 20.515625 -0.4375 C 18.742188 0.238281 16.898438 0.578125 14.984375 0.578125 C 12.441406 0.578125 10.210938 0.09375 8.296875 -0.875 C 6.390625 -1.84375 4.910156 -3.234375 3.859375 -5.046875 C 2.816406 -6.867188 2.296875 -9.070312 2.296875 -11.65625 C 2.296875 -13.570312 2.539062 -15.445312 3.03125 -17.28125 C 3.53125 -19.113281 4.269531 -20.828125 5.25 -22.421875 C 6.226562 -24.023438 7.421875 -25.429688 8.828125 -26.640625 C 10.234375 -27.847656 11.835938 -28.789062 13.640625 -29.46875 C 15.453125 -30.15625 17.445312 -30.5 19.625 -30.5 Z M 19.609375 -26.65625 C 17.648438 -26.65625 15.914062 -26.257812 14.40625 -25.46875 C 12.90625 -24.6875 11.632812 -23.628906 10.59375 -22.296875 C 9.550781 -20.960938 8.75 -19.484375 8.1875 -17.859375 L 26.5 -17.859375 C 26.539062 -18.179688 26.578125 -18.488281 26.609375 -18.78125 C 26.640625 -19.082031 26.65625 -19.375 26.65625 -19.65625 C 26.65625 -22.039062 26.007812 -23.800781 24.71875 -24.9375 C 23.425781 -26.082031 21.722656 -26.65625 19.609375 -26.65625 Z M 19.609375 -26.65625 "/></g></g><g style="fill:#ffffff;fill-opacity:1;"><g transform="translate(260.030184, 211.791148)"><path style="stroke:none" d="M 11.78125 0.578125 C 9.582031 0.578125 7.6875 0.242188 6.09375 -0.421875 C 4.507812 -1.097656 3.289062 -2.066406 2.4375 -3.328125 C 1.582031 -4.585938 1.164062 -6.101562 1.1875 -7.875 L 5.921875 -8.859375 C 5.835938 -7.085938 6.34375 -5.703125 7.4375 -4.703125 C 8.539062 -3.703125 10.039062 -3.203125 11.9375 -3.203125 C 13.21875 -3.203125 14.390625 -3.425781 15.453125 -3.875 C 16.523438 -4.320312 17.378906 -4.976562 18.015625 -5.84375 C 18.660156 -6.707031 18.984375 -7.753906 18.984375 -8.984375 C 18.984375 -9.929688 18.710938 -10.6875 18.171875 -11.25 C 17.640625 -11.8125 16.878906 -12.265625 15.890625 -12.609375 C 14.898438 -12.953125 13.742188 -13.296875 12.421875 -13.640625 C 11.390625 -13.910156 10.394531 -14.21875 9.4375 -14.5625 C 8.476562 -14.90625 7.617188 -15.34375 6.859375 -15.875 C 6.109375 -16.40625 5.515625 -17.070312 5.078125 -17.875 C 4.640625 -18.675781 4.421875 -19.671875 4.421875 -20.859375 C 4.421875 -22.910156 4.9375 -24.648438 5.96875 -26.078125 C 7 -27.503906 8.390625 -28.585938 10.140625 -29.328125 C 11.890625 -30.066406 13.832031 -30.4375 15.96875 -30.4375 C 17.84375 -30.4375 19.523438 -30.148438 21.015625 -29.578125 C 22.515625 -29.015625 23.707031 -28.144531 24.59375 -26.96875 C 25.476562 -25.800781 25.921875 -24.3125 25.921875 -22.5 L 21.46875 -21.703125 C 21.53125 -22.910156 21.3125 -23.882812 20.8125 -24.625 C 20.3125 -25.363281 19.644531 -25.898438 18.8125 -26.234375 C 17.976562 -26.578125 17.070312 -26.75 16.09375 -26.75 C 14.894531 -26.75 13.773438 -26.53125 12.734375 -26.09375 C 11.691406 -25.65625 10.851562 -25.019531 10.21875 -24.1875 C 9.59375 -23.363281 9.28125 -22.375 9.28125 -21.21875 C 9.28125 -20.320312 9.5625 -19.617188 10.125 -19.109375 C 10.6875 -18.597656 11.421875 -18.195312 12.328125 -17.90625 C 13.242188 -17.613281 14.242188 -17.320312 15.328125 -17.03125 C 16.410156 -16.769531 17.46875 -16.460938 18.5 -16.109375 C 19.539062 -15.753906 20.472656 -15.296875 21.296875 -14.734375 C 22.117188 -14.171875 22.773438 -13.460938 23.265625 -12.609375 C 23.753906 -11.753906 24 -10.695312 24 -9.4375 C 24 -7.820312 23.6875 -6.390625 23.0625 -5.140625 C 22.445312 -3.890625 21.578125 -2.84375 20.453125 -2 C 19.335938 -1.15625 18.039062 -0.515625 16.5625 -0.078125 C 15.082031 0.359375 13.488281 0.578125 11.78125 0.578125 Z M 11.78125 0.578125 "/></g></g><g style="fill:#ffffff;fill-opacity:1;"><g transform="translate(285.183437, 211.791148)"><path style="stroke:none" d="M 12 -38.109375 C 11.019531 -38.109375 10.21875 -38.453125 9.59375 -39.140625 C 8.976562 -39.835938 8.710938 -40.671875 8.796875 -41.640625 C 8.878906 -42.316406 9.109375 -42.914062 9.484375 -43.4375 C 9.859375 -43.96875 10.332031 -44.390625 10.90625 -44.703125 C 11.488281 -45.023438 12.109375 -45.1875 12.765625 -45.1875 C 13.410156 -45.1875 13.988281 -45.023438 14.5 -44.703125 C 15.007812 -44.390625 15.394531 -43.96875 15.65625 -43.4375 C 15.925781 -42.914062 16.019531 -42.316406 15.9375 -41.640625 C 15.875 -40.992188 15.644531 -40.398438 15.25 -39.859375 C 14.851562 -39.316406 14.367188 -38.890625 13.796875 -38.578125 C 13.234375 -38.265625 12.632812 -38.109375 12 -38.109375 Z M 2.328125 0 L 7.640625 -30.015625 L 12.953125 -30.015625 L 7.640625 0 Z M 2.328125 0 "/></g></g><g style="fill:#ffffff;fill-opacity:1;"><g transform="translate(297.820356, 211.791148)"><path style="stroke:none" d="M 29.40625 -29.921875 L 34.34375 -29.921875 L 29.03125 0.3125 C 28.445312 3.6875 27.382812 6.523438 25.84375 8.828125 C 24.3125 11.128906 22.375 12.867188 20.03125 14.046875 C 17.6875 15.222656 15.007812 15.8125 12 15.8125 C 8.289062 15.8125 5.367188 14.984375 3.234375 13.328125 C 1.097656 11.671875 -0.3125 9.394531 -1 6.5 L 3.421875 4.734375 C 4.335938 9.296875 7.164062 11.578125 11.90625 11.578125 C 14.125 11.578125 16.0625 11.109375 17.71875 10.171875 C 19.382812 9.234375 20.738281 7.910156 21.78125 6.203125 C 22.832031 4.492188 23.550781 2.488281 23.9375 0.1875 L 25.09375 -6.65625 C 24.300781 -5.5 23.304688 -4.484375 22.109375 -3.609375 C 20.921875 -2.734375 19.617188 -2.050781 18.203125 -1.5625 C 16.796875 -1.070312 15.347656 -0.828125 13.859375 -0.828125 C 12.191406 -0.828125 10.648438 -1.117188 9.234375 -1.703125 C 7.816406 -2.296875 6.582031 -3.132812 5.53125 -4.21875 C 4.488281 -5.3125 3.679688 -6.609375 3.109375 -8.109375 C 2.546875 -9.617188 2.265625 -11.300781 2.265625 -13.15625 C 2.265625 -14.96875 2.539062 -16.726562 3.09375 -18.4375 C 3.65625 -20.144531 4.441406 -21.726562 5.453125 -23.1875 C 6.460938 -24.644531 7.632812 -25.921875 8.96875 -27.015625 C 10.3125 -28.117188 11.78125 -28.972656 13.375 -29.578125 C 14.976562 -30.191406 16.644531 -30.5 18.375 -30.5 C 20.03125 -30.5 21.535156 -30.222656 22.890625 -29.671875 C 24.242188 -29.128906 25.382812 -28.367188 26.3125 -27.390625 C 27.25 -26.410156 27.910156 -25.28125 28.296875 -24 Z M 15.203125 -5.1875 C 16.796875 -5.1875 18.3125 -5.535156 19.75 -6.234375 C 21.195312 -6.941406 22.484375 -7.894531 23.609375 -9.09375 C 24.742188 -10.300781 25.640625 -11.65625 26.296875 -13.15625 C 26.960938 -14.664062 27.296875 -16.222656 27.296875 -17.828125 C 27.296875 -19.421875 26.960938 -20.851562 26.296875 -22.125 C 25.640625 -23.394531 24.707031 -24.398438 23.5 -25.140625 C 22.300781 -25.890625 20.898438 -26.265625 19.296875 -26.265625 C 17.671875 -26.265625 16.132812 -25.90625 14.6875 -25.1875 C 13.238281 -24.476562 11.953125 -23.515625 10.828125 -22.296875 C 9.710938 -21.085938 8.832031 -19.726562 8.1875 -18.21875 C 7.550781 -16.71875 7.234375 -15.164062 7.234375 -13.5625 C 7.234375 -11.925781 7.570312 -10.476562 8.25 -9.21875 C 8.9375 -7.957031 9.878906 -6.96875 11.078125 -6.25 C 12.285156 -5.539062 13.660156 -5.1875 15.203125 -5.1875 Z M 15.203125 -5.1875 "/></g></g><g style="fill:#ffffff;fill-opacity:1;"><g transform="translate(331.887682, 211.791148)"><path style="stroke:none" d="M 21.40625 -30.5 C 23.09375 -30.5 24.570312 -30.179688 25.84375 -29.546875 C 27.113281 -28.921875 28.101562 -28.007812 28.8125 -26.8125 C 29.53125 -25.625 29.890625 -24.164062 29.890625 -22.4375 C 29.890625 -22.050781 29.863281 -21.648438 29.8125 -21.234375 C 29.757812 -20.816406 29.703125 -20.382812 29.640625 -19.9375 L 26.109375 0 L 21 0 L 24.453125 -19.359375 C 24.578125 -20.066406 24.640625 -20.707031 24.640625 -21.28125 C 24.640625 -23.070312 24.148438 -24.34375 23.171875 -25.09375 C 22.191406 -25.851562 20.953125 -26.234375 19.453125 -26.234375 C 18.210938 -26.234375 16.992188 -25.957031 15.796875 -25.40625 C 14.609375 -24.851562 13.566406 -24.023438 12.671875 -22.921875 C 11.773438 -21.828125 11.125 -20.445312 10.71875 -18.78125 L 7.390625 0 L 2.328125 0 L 7.640625 -29.921875 L 12.671875 -29.921875 L 11.96875 -25.859375 C 13.125 -27.304688 14.503906 -28.441406 16.109375 -29.265625 C 17.722656 -30.085938 19.488281 -30.5 21.40625 -30.5 Z M 21.40625 -30.5 "/></g></g></g></svg>